<svg width="211" height="40" viewBox="0 0 211 40" fill="none" xmlns="http://www.w3.org/2000/svg">
<rect x="0.5" y="0.5" width="210" height="39" rx="4.5" stroke="#DA004C"/>
<path d="M42.2296 23.32L44.3416 14.744C43.9149 14.6587 43.4349 14.5307 42.9016 14.36L42.9496 13.8H46.9496C47.1309 14.1413 47.2216 14.4613 47.2216 14.76C46.6349 14.792 46.1229 14.824 45.6856 14.856L42.9016 25H41.3976L38.6456 15.608L36.1496 25H34.4856L31.6216 14.744C31.1949 14.6587 30.7149 14.5307 30.1816 14.36L30.2296 13.8H34.3896C34.5709 14.1413 34.6616 14.4613 34.6616 14.76C34.1389 14.792 33.6589 14.824 33.2216 14.856L35.2536 23.32H35.3176C35.6589 21.848 36.1176 20.072 36.6936 17.992C37.2802 15.912 37.6696 14.52 37.8616 13.816H39.5896L42.1656 23.32H42.2296ZM51.9759 24.104C52.4453 24.104 53.1813 23.88 54.1839 23.432C54.3866 23.7093 54.4933 23.9547 54.5039 24.168C53.9599 24.488 53.4266 24.7387 52.9039 24.92C52.3813 25.1013 52.0079 25.192 51.7839 25.192C50.5466 25.192 49.6026 24.824 48.9519 24.088C48.3013 23.3413 47.9759 22.3013 47.9759 20.968C47.9759 19.6347 48.2906 18.5893 48.9199 17.832C49.5599 17.064 50.5146 16.68 51.7839 16.68C52.7653 16.68 53.5119 17.032 54.0239 17.736C54.5466 18.44 54.8079 19.384 54.8079 20.568C54.7226 20.7173 54.6533 20.8187 54.5999 20.872L49.4479 20.792C49.4586 21.8693 49.6453 22.6907 50.0079 23.256C50.3813 23.8213 51.0373 24.104 51.9759 24.104ZM53.3519 19.88C53.3519 19.176 53.2239 18.632 52.9679 18.248C52.7119 17.8533 52.2853 17.656 51.6879 17.656C51.0906 17.656 50.5573 17.768 50.0879 17.992C49.7679 18.632 49.5653 19.288 49.4799 19.96C50.3226 19.9493 51.6133 19.9227 53.3519 19.88ZM58.1474 13.24C58.2114 13.5387 58.2434 13.9227 58.2434 14.392C58.2434 14.8613 58.0568 15.368 57.6834 15.912C57.3208 16.456 56.9848 16.824 56.6754 17.016C56.4941 16.9413 56.3234 16.8187 56.1634 16.648C56.2808 16.296 56.6114 15.8053 57.1554 15.176C57.2941 15.016 57.3741 14.9253 57.3954 14.904C57.0221 14.904 56.7661 14.8933 56.6274 14.872C56.5634 14.6693 56.5314 14.392 56.5314 14.04C56.5314 13.688 56.5421 13.4373 56.5634 13.288C56.7981 13.2347 57.0434 13.208 57.2994 13.208C57.5661 13.208 57.8488 13.2187 58.1474 13.24ZM64.6052 18.024C64.5519 17.9707 64.4345 17.944 64.2532 17.944C64.0719 17.944 63.7999 18.008 63.4372 18.136C63.0852 18.264 62.7652 18.4133 62.4772 18.584C62.4132 20.952 62.3705 22.728 62.3492 23.912L63.6932 24.04C63.6932 24.3387 63.6025 24.6587 63.4212 25H59.7412L59.6932 24.44C60.1839 24.2693 60.6639 24.1413 61.1332 24.056C61.0692 21.3467 61.0159 19.3413 60.9732 18.04C60.3865 18.008 59.9172 17.944 59.5652 17.848L59.6292 17.016C60.1945 16.856 61.0319 16.776 62.1412 16.776C62.3119 17.0427 62.4185 17.384 62.4612 17.8C63.6879 17.0533 64.4185 16.68 64.6532 16.68C64.8879 16.68 65.1599 16.728 65.4692 16.824C65.7785 16.9093 66.0079 17.0053 66.1572 17.112C66.1572 18.1787 66.0559 19.048 65.8532 19.72C65.7039 19.7627 65.5279 19.784 65.3252 19.784C65.1332 19.784 64.9999 19.7787 64.9252 19.768L64.6052 18.024ZM70.9447 24.104C71.414 24.104 72.15 23.88 73.1527 23.432C73.3554 23.7093 73.462 23.9547 73.4727 24.168C72.9287 24.488 72.3954 24.7387 71.8727 24.92C71.35 25.1013 70.9767 25.192 70.7527 25.192C69.5154 25.192 68.5714 24.824 67.9207 24.088C67.27 23.3413 66.9447 22.3013 66.9447 20.968C66.9447 19.6347 67.2594 18.5893 67.8887 17.832C68.5287 17.064 69.4834 16.68 70.7527 16.68C71.734 16.68 72.4807 17.032 72.9927 17.736C73.5154 18.44 73.7767 19.384 73.7767 20.568C73.6914 20.7173 73.622 20.8187 73.5687 20.872L68.4167 20.792C68.4274 21.8693 68.614 22.6907 68.9767 23.256C69.35 23.8213 70.006 24.104 70.9447 24.104ZM72.3207 19.88C72.3207 19.176 72.1927 18.632 71.9367 18.248C71.6807 17.8533 71.254 17.656 70.6567 17.656C70.0594 17.656 69.526 17.768 69.0567 17.992C68.7367 18.632 68.534 19.288 68.4487 19.96C69.2914 19.9493 70.582 19.9227 72.3207 19.88ZM83.0324 25.192C81.7524 25.192 80.7978 24.8347 80.1684 24.12C79.5391 23.3947 79.2244 22.3653 79.2244 21.032C79.2244 18.1307 80.5151 16.68 83.0964 16.68C83.5124 16.68 83.9444 16.744 84.3924 16.872C84.8404 16.9893 85.1924 17.1227 85.4484 17.272C85.4164 18.264 85.3151 18.968 85.1444 19.384C84.9524 19.4373 84.7978 19.464 84.6804 19.464H84.4084C84.3551 19.464 84.2911 19.4587 84.2164 19.448L83.8164 17.688C83.4644 17.656 83.2618 17.64 83.2084 17.64C82.4404 17.64 81.8271 17.8747 81.3684 18.344C80.9204 18.8133 80.6964 19.6027 80.6964 20.712C80.6964 21.8213 80.8671 22.664 81.2084 23.24C81.5604 23.816 82.2324 24.104 83.2244 24.104C83.6938 24.104 84.4298 23.88 85.4324 23.432C85.6351 23.7093 85.7418 23.9547 85.7524 24.168C85.2084 24.488 84.6751 24.7387 84.1524 24.92C83.6298 25.1013 83.2564 25.192 83.0324 25.192ZM90.4673 24.232C91.3633 24.232 91.966 23.9547 92.2753 23.4C92.5953 22.8347 92.7553 22.0347 92.7553 21C92.7553 19.3573 92.3926 18.328 91.6673 17.912C91.3686 17.7413 90.9473 17.656 90.4033 17.656C89.87 17.656 89.3633 17.768 88.8833 17.992C88.4566 18.8133 88.2433 19.768 88.2433 20.856C88.2433 21.9013 88.382 22.7067 88.6593 23.272C88.9793 23.912 89.582 24.232 90.4673 24.232ZM86.7713 21C86.7713 19.6453 87.0806 18.5893 87.6993 17.832C88.318 17.064 89.2726 16.68 90.5633 16.68C91.854 16.68 92.7873 17.032 93.3633 17.736C93.9393 18.4293 94.2273 19.4587 94.2273 20.824C94.2273 22.1893 93.918 23.2613 93.2993 24.04C92.6913 24.8187 91.7633 25.208 90.5153 25.208C89.2673 25.208 88.3286 24.8453 87.6993 24.12C87.0806 23.3947 86.7713 22.3547 86.7713 21ZM99.0767 24.232C99.9727 24.232 100.575 23.9547 100.885 23.4C101.205 22.8347 101.365 22.0347 101.365 21C101.365 19.3573 101.002 18.328 100.277 17.912C99.978 17.7413 99.5567 17.656 99.0127 17.656C98.4794 17.656 97.9727 17.768 97.4927 17.992C97.066 18.8133 96.8527 19.768 96.8527 20.856C96.8527 21.9013 96.9914 22.7067 97.2687 23.272C97.5887 23.912 98.1914 24.232 99.0767 24.232ZM95.3807 21C95.3807 19.6453 95.69 18.5893 96.3087 17.832C96.9274 17.064 97.882 16.68 99.1727 16.68C100.463 16.68 101.397 17.032 101.973 17.736C102.549 18.4293 102.837 19.4587 102.837 20.824C102.837 22.1893 102.527 23.2613 101.909 24.04C101.301 24.8187 100.373 25.208 99.1247 25.208C97.8767 25.208 96.938 24.8453 96.3087 24.12C95.69 23.3947 95.3807 22.3547 95.3807 21ZM106.15 13.016C106.481 13.016 106.715 13.0267 106.854 13.048C106.854 13.3787 106.785 13.8053 106.646 14.328C106.582 17.144 106.55 19.272 106.55 20.712L109.126 17.96L107.846 17.832C107.846 17.5333 107.937 17.2133 108.118 16.872H112.182L112.23 17.576C111.985 17.672 111.537 17.7947 110.886 17.944L108.694 19.928L111.398 23.912L112.742 24.04C112.742 24.3387 112.651 24.6587 112.47 25H110.278L107.782 20.744L106.534 21.88C106.513 22.776 106.502 23.4533 106.502 23.912L107.846 24.04C107.846 24.3387 107.755 24.6587 107.574 25H103.894L103.846 24.44C104.337 24.2693 104.817 24.1413 105.286 24.056C105.222 19.7467 105.169 16.488 105.126 14.28C104.539 14.248 104.07 14.184 103.718 14.088L103.782 13.256C104.326 13.096 105.115 13.016 106.15 13.016ZM116.323 15.352C116.046 15.416 115.774 15.448 115.507 15.448C115.251 15.448 114.995 15.432 114.739 15.4C114.675 15.1013 114.643 14.8027 114.643 14.504C114.643 14.1947 114.654 13.9653 114.675 13.816C114.91 13.7627 115.155 13.736 115.411 13.736C115.678 13.736 115.961 13.7467 116.259 13.768C116.323 14.0453 116.355 14.3173 116.355 14.584C116.355 14.84 116.345 15.096 116.323 15.352ZM113.411 17.032C114.318 16.872 115.022 16.792 115.523 16.792C116.025 16.792 116.345 16.8027 116.483 16.824C116.483 17.08 116.451 17.3627 116.387 17.672C116.323 17.9813 116.286 18.1307 116.275 18.12L116.131 23.912L117.475 24.04C117.475 24.3387 117.385 24.6587 117.203 25H113.523L113.475 24.44C113.966 24.2693 114.446 24.1413 114.915 24.056C114.851 21.3893 114.798 19.3893 114.755 18.056C114.137 18.056 113.667 17.992 113.347 17.864L113.411 17.032ZM123.357 16.68C124.381 16.68 125.122 16.936 125.581 17.448C126.04 17.9493 126.269 18.7173 126.269 19.752C126.269 20.0507 126.226 21.4373 126.141 23.912L127.485 24.04C127.485 24.3387 127.394 24.6587 127.213 25H123.533L123.485 24.44C123.976 24.2693 124.456 24.1413 124.925 24.056C124.861 21.2613 124.802 19.7093 124.749 19.4C124.706 19.08 124.632 18.8027 124.525 18.568C124.418 18.3333 124.258 18.168 124.045 18.072C123.832 17.976 123.549 17.928 123.197 17.928C122.493 17.928 121.81 18.0987 121.149 18.44C121.085 20.872 121.042 22.696 121.021 23.912L122.365 24.04C122.365 24.3387 122.274 24.6587 122.093 25H118.413L118.365 24.44C118.856 24.2693 119.336 24.1413 119.805 24.056C119.741 21.3467 119.688 19.3413 119.645 18.04C119.058 18.008 118.589 17.944 118.237 17.848L118.301 17.016C118.877 16.856 119.714 16.776 120.813 16.776C120.941 16.968 121.037 17.2453 121.101 17.608C121.56 17.3627 122.018 17.1493 122.477 16.968C122.946 16.776 123.24 16.68 123.357 16.68ZM132.448 24.024L133.872 23.992C135.344 23.992 136.08 24.6 136.08 25.816C136.08 26.3813 135.835 26.904 135.344 27.384C134.864 27.8747 134.288 28.2427 133.616 28.488C132.944 28.7333 132.315 28.856 131.728 28.856C131.152 28.856 130.614 28.7707 130.112 28.6C129.611 28.44 129.184 28.1733 128.832 27.8C128.48 27.4267 128.304 26.9947 128.304 26.504C128.304 26.3867 128.491 26.0773 128.864 25.576C129.248 25.0853 129.499 24.7973 129.616 24.712C129.52 24.648 129.334 24.4667 129.056 24.168C128.779 23.8587 128.624 23.6453 128.592 23.528C128.859 23.0373 129.28 22.5573 129.856 22.088C129.003 21.576 128.576 20.7333 128.576 19.56C128.576 18.6213 128.875 17.9067 129.472 17.416C130.07 16.9253 130.816 16.68 131.712 16.68C132.608 16.68 133.302 16.824 133.792 17.112C134.646 16.9413 135.483 16.856 136.304 16.856C136.507 16.856 136.608 16.9787 136.608 17.224C136.608 17.6507 136.528 17.944 136.368 18.104L134.528 17.8C134.912 18.2907 135.104 18.8773 135.104 19.56C135.104 20.6267 134.79 21.3947 134.16 21.864C133.531 22.3227 132.758 22.552 131.84 22.552C131.552 22.552 131.211 22.5147 130.816 22.44C130.656 22.7707 130.454 23.128 130.208 23.512C130.4 23.8533 131.147 24.024 132.448 24.024ZM134.48 26.968C134.587 26.6693 134.64 26.36 134.64 26.04C134.64 25.7307 134.518 25.48 134.272 25.288C134.027 25.096 133.712 25 133.328 25C131.803 25 130.87 24.984 130.528 24.952C130.24 25.4107 130.038 25.7947 129.92 26.104C129.814 26.424 129.76 26.6053 129.76 26.648C129.76 27.064 129.958 27.3733 130.352 27.576C130.747 27.7787 131.2 27.88 131.712 27.88C132.235 27.88 132.758 27.7947 133.28 27.624C133.814 27.4533 134.214 27.2347 134.48 26.968ZM133.664 19.624C133.664 18.3013 133.056 17.64 131.84 17.64C130.624 17.64 130.016 18.28 130.016 19.56C130.016 20.2107 130.176 20.712 130.496 21.064C130.816 21.416 131.28 21.592 131.888 21.592C133.072 21.592 133.664 20.936 133.664 19.624Z" fill="#DA004C"/>
<path d="M164.975 13.2244C165.253 13.2244 165.519 13.1147 165.717 12.919C165.914 12.7234 166.027 12.4578 166.029 12.1798C166.032 11.9017 165.925 11.6337 165.731 11.4343C165.537 11.2349 165.272 11.1201 164.994 11.115M164.884 15.3236C164.606 15.3236 164.339 15.2139 164.141 15.0183C163.944 14.8227 163.832 14.557 163.829 14.2791C163.826 14.0009 163.933 13.733 164.127 13.5335C164.321 13.3341 164.586 13.2193 164.864 13.2142M164.975 17.433C165.253 17.433 165.519 17.3233 165.717 17.1277C165.914 16.9321 166.027 16.6664 166.029 16.3884C166.032 16.1103 165.925 15.8423 165.731 15.6429C165.537 15.4435 165.272 15.3287 164.994 15.3236M169.193 13.2244C169.471 13.2244 169.738 13.1147 169.936 12.919C170.133 12.7234 170.246 12.4578 170.248 12.1798C170.251 11.9017 170.144 11.6337 169.95 11.4343C169.756 11.2349 169.491 11.1201 169.213 11.115M169.102 15.3236C168.824 15.3236 168.558 15.2139 168.36 15.0183C168.163 14.8227 168.05 14.557 168.048 14.2791C168.045 14.0009 168.152 13.733 168.346 13.5335C168.54 13.3341 168.805 13.2193 169.083 13.2142M169.193 17.433C169.471 17.433 169.738 17.3233 169.936 17.1277C170.133 16.9321 170.246 16.6664 170.248 16.3884C170.251 16.1103 170.144 15.8423 169.95 15.6429C169.756 15.4435 169.491 15.3287 169.213 15.3236M161.083 13.2244C161.36 13.2244 161.627 13.1147 161.825 12.919C162.022 12.7234 162.135 12.4578 162.137 12.1798C162.14 11.9018 162.033 11.634 161.839 11.4346C161.645 11.2352 161.381 11.1203 161.103 11.115M160.992 15.3236C160.714 15.3236 160.448 15.2139 160.25 15.0183C160.053 14.8227 159.94 14.557 159.938 14.2791C159.935 14.0011 160.042 13.7332 160.236 13.5338C160.429 13.3344 160.694 13.2196 160.972 13.2142M161.083 17.433C161.36 17.433 161.627 17.3233 161.825 17.1277C162.022 16.9321 162.135 16.6664 162.137 16.3884C162.14 16.1104 162.033 15.8426 161.839 15.6432C161.645 15.4438 161.381 15.3289 161.103 15.3236" stroke="#DA004C" stroke-width="0.84375" stroke-linecap="round" stroke-linejoin="round"/>
<path d="M161.492 29.885H169.084V27.374C167.467 28.0878 166.524 28.1992 165.213 28.2262C163.574 28.26 162.462 27.9765 161.492 27.7335V29.885Z" stroke="#383747" stroke-width="0.84375" stroke-linecap="round" stroke-linejoin="round"/>
<path d="M174.843 20.7944C173.425 26.0881 168.008 29.2294 162.714 27.8111C161.034 27.3625 159.502 26.4789 158.273 25.2494C157.043 24.0199 156.159 22.4879 155.711 20.8079L174.843 20.7944Z" fill="#DA004C" stroke="#383747" stroke-width="0.84375" stroke-linecap="round" stroke-linejoin="round"/>
<path d="M155.707 19.1028H174.847V20.8401H155.707V19.1028Z" stroke="#383747" stroke-width="0.84375" stroke-linecap="round" stroke-linejoin="round"/>
<path d="M168.071 19.0976C174.652 19.3575 172.997 14.6679 177.861 14.2444C178.342 14.2022 178.595 14.1929 179.27 14.2359L179.296 14.2275C178.456 13.728 176.909 12.8826 175.617 13.2412C174.956 13.4251 173.927 14.1355 173.238 15.4898C171.502 19.29 169.812 19.09 168.437 19.0968L168.071 19.0976Z" stroke="#383747" stroke-width="0.84375" stroke-linecap="round" stroke-linejoin="round"/>
<path d="M172.119 22.2854C171.522 24.1079 169.923 25.3735 168.066 25.7178" stroke="#DA004C" stroke-width="0.84375" stroke-linecap="round" stroke-linejoin="round"/>
</svg>
