<svg width="1512" height="84" viewBox="0 0 1512 84" fill="none" xmlns="http://www.w3.org/2000/svg">
<path d="M54.4757 38.8865V53.6757H50V30.6487H53.5676L65.4703 45.8271V30.6811H69.9459V53.6757H66.2162L54.4757 38.8865Z" fill="#111111"/>
<path d="M81.9105 54C80.5483 54 79.3159 53.773 78.2132 53.319C77.1105 52.8433 76.1699 52.2054 75.3916 51.4054C74.6132 50.5838 74.0078 49.6541 73.5753 48.6163C73.1645 47.5568 72.9591 46.4433 72.9591 45.2757C72.9591 43.6541 73.3159 42.173 74.0294 40.8325C74.7645 39.4919 75.8024 38.4217 77.1429 37.6217C78.5051 36.8 80.1051 36.3892 81.9429 36.3892C83.8024 36.3892 85.3916 36.8 86.7105 37.6217C88.0294 38.4217 89.0348 39.4919 89.7267 40.8325C90.4402 42.1514 90.797 43.5784 90.797 45.1135C90.797 45.373 90.7862 45.6433 90.7645 45.9244C90.7429 46.1838 90.7213 46.4 90.6997 46.573H77.5645C77.651 47.4379 77.8997 48.1946 78.3105 48.8433C78.7429 49.4919 79.2834 49.9892 79.9321 50.3352C80.6024 50.6595 81.3159 50.8217 82.0726 50.8217C82.9375 50.8217 83.7483 50.6163 84.5051 50.2054C85.2834 49.773 85.8132 49.2108 86.0943 48.519L89.824 49.5568C89.4132 50.4217 88.8186 51.1892 88.0402 51.8595C87.2834 52.5298 86.3862 53.0595 85.3483 53.4487C84.3105 53.8162 83.1645 54 81.9105 54ZM77.4672 43.8163H86.3537C86.2672 42.9514 86.0186 42.2054 85.6078 41.5784C85.2186 40.9298 84.6997 40.4325 84.051 40.0865C83.4024 39.719 82.678 39.5352 81.878 39.5352C81.0997 39.5352 80.3862 39.719 79.7375 40.0865C79.1105 40.4325 78.5916 40.9298 78.1807 41.5784C77.7916 42.2054 77.5537 42.9514 77.4672 43.8163Z" fill="#111111"/>
<path d="M138.331 36.6811C138.18 36.5297 137.899 36.3243 137.488 36.0649C137.099 35.8054 136.612 35.5568 136.028 35.3189C135.466 35.0811 134.85 34.8757 134.18 34.7027C133.51 34.5081 132.828 34.4108 132.137 34.4108C130.926 34.4108 130.007 34.6378 129.38 35.0919C128.774 35.5459 128.472 36.1838 128.472 37.0054C128.472 37.6324 128.666 38.1297 129.056 38.4973C129.445 38.8649 130.028 39.1784 130.807 39.4378C131.585 39.6973 132.558 39.9784 133.726 40.2811C135.239 40.6486 136.547 41.1027 137.65 41.6432C138.774 42.1622 139.628 42.8541 140.212 43.7189C140.818 44.5622 141.12 45.6865 141.12 47.0919C141.12 48.3243 140.893 49.3838 140.439 50.2703C139.985 51.1351 139.358 51.8378 138.558 52.3784C137.758 52.9189 136.85 53.3189 135.834 53.5784C134.818 53.8162 133.737 53.9351 132.591 53.9351C131.445 53.9351 130.299 53.8162 129.153 53.5784C128.007 53.3405 126.904 53.0054 125.845 52.573C124.785 52.1189 123.812 51.5784 122.926 50.9514L124.904 47.0919C125.099 47.2865 125.445 47.5459 125.942 47.8703C126.439 48.173 127.045 48.4865 127.758 48.8108C128.472 49.1135 129.25 49.373 130.093 49.5892C130.937 49.8054 131.791 49.9135 132.656 49.9135C133.866 49.9135 134.785 49.7081 135.412 49.2973C136.039 48.8865 136.353 48.3027 136.353 47.5459C136.353 46.8541 136.104 46.3135 135.607 45.9243C135.11 45.5351 134.418 45.2 133.531 44.9189C132.645 44.6162 131.596 44.2919 130.385 43.9459C128.937 43.5351 127.726 43.0811 126.753 42.5838C125.78 42.0649 125.056 41.4162 124.58 40.6378C124.104 39.8595 123.866 38.8865 123.866 37.7189C123.866 36.1405 124.234 34.8216 124.969 33.7622C125.726 32.6811 126.742 31.8703 128.018 31.3297C129.293 30.7676 130.71 30.4865 132.266 30.4865C133.347 30.4865 134.364 30.6054 135.315 30.8432C136.288 31.0811 137.196 31.3946 138.039 31.7838C138.883 32.173 139.639 32.5946 140.31 33.0486L138.331 36.6811Z" fill="#111111"/>
<path d="M153.885 52.8C153.517 52.9514 153.074 53.1243 152.555 53.3189C152.036 53.5135 151.474 53.6649 150.868 53.773C150.285 53.9027 149.69 53.9676 149.085 53.9676C148.285 53.9676 147.549 53.827 146.879 53.5459C146.209 53.2649 145.668 52.8216 145.258 52.2162C144.868 51.5892 144.674 50.7784 144.674 49.7838V40.0216H142.436V36.6811H144.674V31.1676H149.02V36.6811H152.587V40.0216H149.02V48.3243C149.041 48.9081 149.203 49.3297 149.506 49.5892C149.809 49.8486 150.187 49.9784 150.641 49.9784C151.095 49.9784 151.539 49.9027 151.971 49.7514C152.403 49.6 152.749 49.4703 153.009 49.3622L153.885 52.8Z" fill="#111111"/>
<path d="M154.98 48.6487C154.98 47.5459 155.283 46.5838 155.889 45.7622C156.516 44.9189 157.38 44.2703 158.483 43.8162C159.586 43.3622 160.851 43.1351 162.278 43.1351C162.991 43.1351 163.716 43.1892 164.451 43.2973C165.186 43.4054 165.824 43.5784 166.364 43.8162V42.9081C166.364 41.827 166.04 40.9946 165.391 40.4108C164.764 39.827 163.824 39.5351 162.57 39.5351C161.64 39.5351 160.753 39.6973 159.91 40.0216C159.067 40.3459 158.18 40.8216 157.251 41.4486L155.856 38.5946C156.98 37.8595 158.126 37.3081 159.294 36.9405C160.483 36.573 161.726 36.3892 163.024 36.3892C165.445 36.3892 167.326 36.9946 168.667 38.2054C170.029 39.4162 170.71 41.1459 170.71 43.3946V48.8108C170.71 49.2649 170.786 49.5892 170.937 49.7838C171.11 49.9784 171.38 50.0973 171.748 50.1405V53.6757C171.359 53.7405 171.002 53.7946 170.678 53.8378C170.375 53.8811 170.116 53.9027 169.899 53.9027C169.034 53.9027 168.375 53.7081 167.921 53.3189C167.489 52.9297 167.218 52.4541 167.11 51.8919L167.013 51.0162C166.278 51.9676 165.359 52.7027 164.256 53.2216C163.153 53.7405 162.029 54 160.883 54C159.759 54 158.743 53.773 157.834 53.3189C156.948 52.8432 156.245 52.2054 155.726 51.4054C155.229 50.5838 154.98 49.6649 154.98 48.6487ZM165.553 49.5243C165.791 49.2649 165.986 49.0054 166.137 48.7459C166.289 48.4865 166.364 48.2486 166.364 48.0324V46.3135C165.845 46.0973 165.283 45.9351 164.678 45.827C164.072 45.6973 163.499 45.6324 162.959 45.6324C161.834 45.6324 160.905 45.8811 160.17 46.3784C159.456 46.8541 159.099 47.4919 159.099 48.2919C159.099 48.7243 159.218 49.1351 159.456 49.5243C159.694 49.9135 160.04 50.227 160.494 50.4649C160.948 50.7027 161.489 50.8216 162.116 50.8216C162.764 50.8216 163.402 50.7027 164.029 50.4649C164.656 50.2054 165.164 49.8919 165.553 49.5243Z" fill="#111111"/>
<path d="M182.685 54C181.301 54 180.058 53.773 178.955 53.3189C177.852 52.8432 176.912 52.1946 176.133 51.373C175.355 50.5297 174.75 49.5784 174.317 48.5189C173.906 47.4595 173.701 46.3459 173.701 45.1784C173.701 43.5784 174.058 42.1189 174.771 40.8C175.506 39.4595 176.544 38.3892 177.885 37.5892C179.225 36.7892 180.815 36.3892 182.652 36.3892C184.49 36.3892 186.069 36.7892 187.388 37.5892C188.706 38.3892 189.69 39.4378 190.339 40.7351L186.09 42.0324C185.723 41.4054 185.236 40.9297 184.631 40.6054C184.025 40.2595 183.355 40.0865 182.62 40.0865C181.798 40.0865 181.042 40.3027 180.35 40.7351C179.679 41.1459 179.15 41.7405 178.761 42.5189C178.371 43.2757 178.177 44.1622 178.177 45.1784C178.177 46.173 178.371 47.0595 178.761 47.8378C179.171 48.5946 179.712 49.2 180.382 49.6541C181.052 50.0865 181.798 50.3027 182.62 50.3027C183.139 50.3027 183.625 50.2162 184.079 50.0432C184.555 49.8703 184.977 49.6324 185.344 49.3297C185.712 49.027 185.982 48.6811 186.155 48.2919L190.404 49.5892C190.015 50.4324 189.442 51.1892 188.685 51.8595C187.95 52.5297 187.074 53.0595 186.058 53.4486C185.063 53.8162 183.939 54 182.685 54Z" fill="#111111"/>
<path d="M204.689 53.6757L199.727 46.3459L197.424 48.6162V53.6757H193.078V30H197.424V44.3351L204.267 36.7135H208.872L202.548 43.9135L209.327 53.6757H204.689Z" fill="#111111"/>
<path d="M95.3005 34.4061L98.9923 30.5557C99.8533 29.6576 101.344 29.8804 101.904 30.9909L105.718 38.5419C106.528 40.1464 104.817 41.8531 103.215 41.0386L95.7852 37.2625C94.7063 36.7141 94.4628 35.2797 95.3005 34.4061Z" fill="#DA004C"/>
<path fill-rule="evenodd" clip-rule="evenodd" d="M95.9626 48.9539L99.5332 52.7751C99.9404 53.2109 100.655 53.1197 100.94 52.5955L104.989 45.138C105.421 44.3411 104.574 43.4594 103.761 43.8598L96.2152 47.5734C95.6892 47.8323 95.5623 48.5255 95.9626 48.9539ZM95.2831 49.5889L98.8537 53.4101C99.6943 54.3098 101.169 54.1214 101.757 53.0393L105.806 45.5818C106.671 43.988 104.977 42.2245 103.35 43.0254L95.8045 46.7389C94.7186 47.2734 94.4567 48.7045 95.2831 49.5889Z" fill="#E86E04"/>
<path fill-rule="evenodd" clip-rule="evenodd" d="M113.741 52.8006L117.433 48.9502C117.839 48.527 117.721 47.8322 117.198 47.5666L109.769 43.7905C108.967 43.3833 108.112 44.2366 108.517 45.0388L112.33 52.5898C112.602 53.1278 113.324 53.2357 113.741 52.8006ZM110.19 42.9614C108.587 42.1469 106.876 43.8536 107.687 45.4581L111.5 53.0091C112.061 54.1196 113.551 54.3424 114.412 53.4443L118.104 49.5939C118.942 48.7203 118.698 47.2859 117.619 46.7375L110.19 42.9614Z" fill="#DA004C"/>
<path fill-rule="evenodd" clip-rule="evenodd" d="M111.965 31.0207C112.552 29.9386 114.027 29.7502 114.868 30.6498L118.439 34.4711C119.265 35.3554 119.003 36.7865 117.917 37.321L110.372 41.0346C108.745 41.8354 107.051 40.0719 107.916 38.4781L111.965 31.0207Z" fill="#E86E04"/>
<circle cx="216.324" cy="51" r="3" fill="#DA004C"/>
</svg>
